<svg width="512" height="512" viewBox="0 0 512 512" xmlns="http://www.w3.org/2000/svg" role="img" aria-label="Logo Jonatan Vale Psicanálise">
  <defs>
    <linearGradient id="g1" x1="0" y1="0" x2="1" y2="1">
      <stop offset="0%" stop-color="#0f766e"/>
      <stop offset="100%" stop-color="#0f172a"/>
    </linearGradient>
    <linearGradient id="leaf" x1="0" y1="0" x2="1" y2="1">
      <stop offset="0%" stop-color="#84cc16"/>
      <stop offset="100%" stop-color="#16a34a"/>
    </linearGradient>
  </defs>
  <rect width="512" height="512" rx="90" fill="#f8fafc"/>
  <circle cx="256" cy="256" r="172" fill="none" stroke="url(#g1)" stroke-width="12" opacity="0.18"/>
  <path d="M178 336c-18-3-34-17-42-37-8-19-7-41 4-58 10-17 12-39 5-58-6-15-4-31 6-45 14-20 40-31 67-27 29 4 46 23 54 37 10-17 28-30 53-33 27-3 53 10 66 31 9 15 10 30 5 45-7 18-6 40 4 57 10 18 11 39 3 58-8 21-25 35-43 38-18 4-37-1-52-12-20-15-48-15-69 0-17 11-35 16-61 4Z" fill="url(#g1)" opacity="0.95"/>
  <path d="M258 150c18 14 26 34 25 57-2 39-5 79-5 118" fill="none" stroke="#e2e8f0" stroke-width="8" stroke-linecap="round"/>
  <path d="M258 204c-23-16-38-34-45-56 23 1 43 10 58 29-1 8-5 18-13 27Z" fill="url(#leaf)"/>
  <path d="M279 234c25-13 43-29 53-50-25-2-46 5-62 21-1 10 1 20 9 29Z" fill="url(#leaf)"/>
  <path d="M253 264c-22-11-37-25-45-44 22-1 40 5 54 19 1 8-1 16-9 25Z" fill="url(#leaf)"/>
  <ellipse cx="277" cy="340" rx="62" ry="12" fill="#e2e8f0" opacity="0.7"/>
</svg>